<?xml version="1.0" encoding="iso-8859-1"?>
<!-- Uploaded to: SVG Repo, www.svgrepo.com, Generator: SVG Repo Mixer Tools -->
<svg height="800px" width="800px" version="1.1" id="Layer_1" xmlns="http://www.w3.org/2000/svg" xmlns:xlink="http://www.w3.org/1999/xlink" 
	 viewBox="0 0 512 512" xml:space="preserve">
<g transform="translate(1 1)">
	<path style="fill:#E2E3E5;" d="M497.036,82.782C490.52,40.891,392.775,8.309,273.618,8.309v493.382
		c119.156,0,215.971-32.582,223.418-74.473l0,0V315.509v-4.655V306.2V203.8v-4.655v-4.655V87.436V82.782L497.036,82.782z"/>
	<path style="fill:#FFFFFF;" d="M22.273,82.782C28.789,40.891,126.535,8.309,245.691,8.309v493.382
		c-119.156,0-215.971-32.582-223.418-74.473l0,0V315.509v-4.655V306.2V203.8v-4.655v-4.655V87.436V82.782L22.273,82.782z"/>
	<path style="fill:#CCCCCC;" d="M469.109,82.782C462.593,40.891,364.847,8.309,245.691,8.309v493.382
		c119.156,0,215.971-32.582,223.418-74.473l0,0V315.509v-4.655V306.2V203.8v-4.655v-4.655V87.436V82.782L469.109,82.782z"/>
	<path style="fill:#E2E3E5;" d="M441.182,82.782L441.182,82.782c-6.516-41.891-48.407-74.473-167.564-74.473
		S57.647,40.891,50.2,82.782l0,0v4.655v107.055v4.655v4.655v102.4v4.655v4.655v111.709l0,0
		c6.516,41.891,104.262,74.473,223.418,74.473s160.116-32.582,167.564-74.473l0,0V315.509v-4.655V306.2V203.8v-4.655v-4.655V87.436
		V82.782L441.182,82.782z"/>
	<path style="fill:#E0E0E0;" d="M245.691,296.891V408.6c119.156,0,215.971-32.582,223.418-74.473l0,0V213.109
		C469.109,256.862,369.502,296.891,245.691,296.891"/>
	<path style="fill:#FFFFFF;" d="M245.691,296.891V408.6c-119.156,0-215.971-32.582-223.418-74.473l0,0V213.109
		C22.273,256.862,121.88,296.891,245.691,296.891"/>
	<path style="fill:#F0F0F0;" d="M217.764,296.891L50.2,259.655v102.4c23.273,20.48,48.407,46.545,167.564,46.545
		s215.971-13.964,223.418-55.855l0,0v-96.815c0-4.655-5.585-6.516-8.378-3.724C405.807,281.996,319.233,296.891,217.764,296.891"/>
	<g>
		<path style="fill:#B6B6B6;" d="M245.691,511c-121.949,0-220.625-34.444-231.796-80.058c-0.931-0.931-0.931-1.862-0.931-3.724
			V82.782c0-1.862,0-2.793,0.931-4.655C25.065,32.513,123.742-1,245.691-1s220.625,33.513,231.796,79.127
			c0.931,1.862,0.931,2.793,0.931,4.655v344.436c0,1.862,0,2.793-0.931,4.655C466.316,477.487,367.64,511,245.691,511z
			 M31.582,424.425v0.931c5.585,32.582,93.091,67.025,214.109,67.025s208.524-34.444,214.109-67.025v-0.931V85.575v-0.931
			c-5.585-32.582-93.091-67.025-214.109-67.025S37.167,52.062,31.582,84.644v0.931V424.425z"/>
		<path style="fill:#B6B6B6;" d="M245.691,417.909c-121.949,0-220.625-34.444-231.796-79.127c-0.931-1.862-0.931-2.793-0.931-4.655
			V213.109c0-5.585,3.724-9.309,9.309-9.309s9.309,3.724,9.309,9.309c0,35.375,91.229,74.473,214.109,74.473
			S459.8,248.484,459.8,213.109c0-5.585,3.724-9.309,9.309-9.309s9.309,3.724,9.309,9.309v121.018c0,1.862,0,2.793-0.931,4.655
			C466.316,384.396,367.64,417.909,245.691,417.909z M31.582,331.335v0.931c5.585,32.582,93.091,67.025,214.109,67.025
			s208.524-34.444,214.109-67.025v-0.931v-81.92C424.425,282.927,341.575,306.2,245.691,306.2S66.956,282.927,31.582,249.415
			V331.335z M469.109,334.127L469.109,334.127L469.109,334.127z"/>
		<path style="fill:#B6B6B6;" d="M245.691,306.2c-121.949,0-220.625-34.444-231.796-79.127c-0.931-1.862-0.931-2.793-0.931-4.655
			V101.4c0-5.585,3.724-9.309,9.309-9.309s9.309,3.724,9.309,9.309c0,35.375,91.229,74.473,214.109,74.473
			S459.8,136.775,459.8,101.4c0-5.585,3.724-9.309,9.309-9.309s9.309,3.724,9.309,9.309v121.018c0,1.862,0,2.793-0.931,4.655
			C466.316,272.687,367.64,306.2,245.691,306.2z M31.582,219.625v0.931c5.585,32.582,93.091,67.025,214.109,67.025
			s208.524-34.444,214.109-67.025v-0.931v-81.92c-35.375,33.513-118.225,56.785-214.109,56.785S66.956,171.218,31.582,137.705
			V219.625z M469.109,222.418L469.109,222.418L469.109,222.418z"/>
	</g>
</g>
</svg>